<svg width="513" height="491" viewBox="0 0 513 491" fill="none" xmlns="http://www.w3.org/2000/svg">
<path d="M294.212 23.3716C262.682 26.5202 235.934 90.6817 226.501 122.369C187.567 138.838 109.77 172.476 113.095 205.772C117.252 247.392 181.101 257.795 176.265 261.833C172.396 265.064 172.421 278.123 172.918 284.248L164.557 281.897C145.376 279.395 125.593 286.039 128.306 319.528C130.477 346.32 168.99 365.35 190.263 375.138C198.807 392.214 222.71 430.97 233.022 442.494C228.296 464.718 277.456 472.242 308.425 461.053C333.2 452.102 339.296 444.876 339.247 442.382C345.953 470.5 436.537 441.062 458.459 419.981C475.996 403.116 460.559 385.089 450.649 378.183C452.209 369.074 429.146 327.09 424.373 319.254C420.556 312.986 420.065 289.429 420.297 278.435C442.315 269.055 483.894 244.24 489.324 218.499C494.753 192.757 414 153.873 370.658 134.026C358.313 95.829 325.741 20.2231 294.212 23.3716Z" fill="white"/>
<g style="mix-blend-mode:plus-lighter" filter="url(#filter0_f_2738_49545)">
<path d="M294.212 23.3716C262.682 26.5202 235.934 90.6817 226.501 122.369C187.567 138.838 109.77 172.476 113.095 205.772C117.252 247.392 181.101 257.795 176.265 261.833C172.396 265.064 172.421 278.123 172.918 284.248L164.557 281.897C145.376 279.395 125.593 286.039 128.306 319.528C130.477 346.32 168.99 365.35 190.263 375.138C198.807 392.214 222.71 430.97 233.022 442.494C228.296 464.718 277.456 472.242 308.425 461.053C333.2 452.102 339.296 444.876 339.247 442.382C345.953 470.5 436.537 441.062 458.459 419.981C475.996 403.116 460.559 385.089 450.649 378.183C452.209 369.074 429.146 327.09 424.373 319.254C420.556 312.986 420.065 289.429 420.297 278.435C442.315 269.055 483.894 244.24 489.324 218.499C494.753 192.757 414 153.873 370.658 134.026C358.313 95.829 325.741 20.2231 294.212 23.3716Z" fill="white"/>
</g>
<path fill-rule="evenodd" clip-rule="evenodd" d="M155.385 312.021C153.632 312.582 151.729 311.818 150.85 310.201L115.808 245.735C114.66 243.623 115.718 240.987 118.007 240.255L120.985 239.302C122.738 238.742 124.641 239.506 125.519 241.122L160.562 305.589C161.71 307.701 160.652 310.336 158.363 311.068L155.385 312.021Z" fill="#96CA56"/>
<path d="M115.041 148.087C151.107 152.713 140.361 182.173 130.481 196.325C136.172 190.864 174.108 183.648 169.198 225.358C165.27 258.725 134.339 252.149 119.364 244.69C125.42 258.467 115.549 287.537 83.2667 279.695C57.4411 273.422 61.7037 248.036 67.0632 236.128C51.0956 237.989 19.5161 220.033 41.9381 190.46C57.4842 169.956 77.8351 178.137 87.3128 190.381C82.2524 176.57 78.9783 143.462 115.041 148.087Z" fill="#BBEC9A"/>
<path d="M88.731 211.358L60.8145 204.524" stroke="#9DD875" stroke-width="5.74776" stroke-linecap="round"/>
<path d="M146.588 220.824L118.31 215.689" stroke="#9DD875" stroke-width="5.74776" stroke-linecap="round"/>
<path d="M111.798 171.407L106.387 199.634" stroke="#9DD875" stroke-width="5.74776" stroke-linecap="round"/>
<path d="M98.2302 226.547L92.8193 254.774" stroke="#9DD875" stroke-width="5.74776" stroke-linecap="round"/>
<path d="M134.675 310.969L153.13 302.964L162.852 303.919L173.006 309.195L172.388 325.687L161.783 332.907L140.582 324.756L134.675 310.969Z" fill="white"/>
<path d="M143.979 307.727C148.046 303.47 155.685 297.701 168.953 307.158C168.953 307.158 183.249 319.209 174.86 327.749" stroke="#D5E1E4" stroke-width="5.74776" stroke-linecap="round"/>
<path d="M343.954 285.143C326.783 277.421 315.118 283.503 309.042 290.18C304.503 294.219 297.516 305.346 305.885 317.543C314.254 329.74 326.133 333.849 331.026 334.379" stroke="#D5E1E4" stroke-width="5.74776" stroke-linecap="round"/>
<path d="M218.97 218.79C217.316 216.945 214.892 215.984 212.423 216.197L202.964 217.013C200.868 217.194 198.953 218.272 197.712 219.971C195.806 222.582 195.878 226.175 197.849 228.737C199.236 230.542 201.397 231.63 203.673 231.645L213.347 231.707C215.567 231.721 217.683 230.772 219.149 229.105C221.71 226.192 221.689 221.825 219.101 218.936L218.97 218.79Z" fill="#CEE4FF"/>
<path d="M309.701 207.499C311.264 205.576 313.639 204.5 316.115 204.594L325.603 204.952C327.705 205.031 329.67 206.017 330.991 207.654C333.021 210.169 333.122 213.761 331.277 216.416C329.978 218.285 327.872 219.477 325.6 219.601L315.94 220.13C313.724 220.251 311.564 219.405 310.02 217.811C307.322 215.025 307.131 210.662 309.577 207.652L309.701 207.499Z" fill="#CEE4FF"/>
<path d="M298.835 186.265C297.912 180.919 291.253 181.237 288.49 182.378C284.209 183.81 284.223 188.034 283.532 194.233C283.209 200.43 281.39 198.187 284.897 207.743C288.405 217.299 296.742 213.592 299.715 209.07C302.688 204.548 299.846 204.001 300.825 196.11C302.171 188.218 300.204 193.297 298.787 186.546L298.835 186.265Z" fill="#424139"/>
<path d="M235.807 191.546C234.885 186.2 228.225 186.518 225.462 187.66C221.182 189.091 221.195 193.315 220.505 199.514C219.815 205.714 218.363 203.469 221.87 213.024C225.377 222.58 233.715 218.874 236.688 214.352C239.661 209.83 236.819 209.282 237.798 201.391C239.144 193.499 237.177 198.579 235.759 191.828L235.807 191.546Z" fill="#424139"/>
<path d="M247.774 212.999C249.825 214.088 251.227 215.026 253.687 215.022C254.804 215.02 255.729 214.866 256.805 214.615C258.477 214.224 260.129 214.045 261.796 213.655C263.581 213.237 265.655 212.444 267.073 211.385" stroke="#424139" stroke-width="6.30253" stroke-linecap="round"/>
<defs>
<filter id="filter0_f_2738_49545" x="90.0011" y="0.285229" width="422.574" height="488.889" filterUnits="userSpaceOnUse" color-interpolation-filters="sRGB">
<feFlood flood-opacity="0" result="BackgroundImageFix"/>
<feBlend mode="normal" in="SourceGraphic" in2="BackgroundImageFix" result="shape"/>
<feGaussianBlur stdDeviation="11.4955" result="effect1_foregroundBlur_2738_49545"/>
</filter>
</defs>
</svg>
