<svg width="1921" height="959" viewBox="0 0 1921 959" fill="none" xmlns="http://www.w3.org/2000/svg">
<g clip-path="url(#clip0_2880_25496)">
<rect width="1920" height="959" transform="translate(0.304199)" fill="#1F3B64"/>
<g filter="url(#filter0_f_2880_25496)">
<path fill-rule="evenodd" clip-rule="evenodd" d="M1931.59 750.318V952.038C1931.59 955.883 1928.48 959 1924.63 959H-4.0233C-7.86808 959 -10.9849 955.883 -10.9849 952.038V750.318V718.652C-10.9849 714.807 -7.86806 711.69 -4.02328 711.69H46.6739C47.3877 711.69 48.0562 711.593 48.7371 711.379C185.494 668.42 542.022 637.788 960.304 637.788C1378.59 637.788 1735.11 668.42 1871.87 711.379C1872.55 711.593 1873.22 711.69 1873.93 711.69H1924.63C1928.48 711.69 1931.59 714.807 1931.59 718.652V750.318Z" fill="url(#paint0_linear_2880_25496)"/>
</g>
<g filter="url(#filter1_f_2880_25496)">
<path d="M1879.9 172.392L1903.47 165.197L1923.36 181.55L1925.2 203.79L1937.36 224.395L1942.88 245.982L1941.41 270.839L1911.94 265.606L1883.21 272.801L1856.69 255.14L1827.96 262.989L1799.97 258.737L1774.55 254.485L1748.77 251.215L1723.36 254.812L1697.57 255.467L1672.16 251.215L1646.38 258.41L1620.59 264.951L1595.18 258.083L1569.39 266.26L1543.98 255.794L1518.2 259.064L1492.41 264.624L1467 257.429L1461.84 238.132L1484.68 225.704L1495.73 207.715L1522.25 202.809L1550.98 200.52L1576.39 187.437L1596.28 173.373L1620.59 175.663L1645.27 176.644L1652.27 153.422L1682.1 146.227L1706.41 136.742L1729.25 123.333L1757.61 123.005L1788.92 117.118L1812.12 136.088L1821.7 167.813L1857.06 151.133L1879.9 172.392Z" fill="white" fill-opacity="0.05"/>
</g>
<g filter="url(#filter2_f_2880_25496)">
<path d="M40.3614 399.368L17.6599 392.439L-1.49446 408.188L-3.26801 429.605L-36.2561 449.449L-69.9536 470.237L-68.5348 494.174L9.50157 489.135L37.169 496.064L62.7082 479.056L90.3756 486.615L117.334 482.52L141.809 478.426L166.638 475.276L191.113 478.741L215.943 479.371L240.418 475.276L265.248 482.205L290.078 488.505L314.553 481.89L339.382 489.765L363.858 479.686L388.687 482.835L413.517 488.19L437.992 481.261L442.958 462.677L420.966 450.708L410.325 433.385L384.785 428.661L357.118 426.456L332.643 413.857L313.489 400.313L290.078 402.518L266.312 403.463L259.573 381.1L230.841 374.171L207.43 365.037L185.438 352.123L158.125 351.808L127.975 346.138L105.628 364.407L96.4057 394.959L62.3535 378.895L40.3614 399.368Z" fill="white" fill-opacity="0.05"/>
</g>
<g opacity="0.6" filter="url(#filter3_f_2880_25496)">
<path d="M1425.84 807.851L1424.97 798.061C1424.79 796.002 1427.43 795.008 1428.97 796.558L1436.51 804.161C1437.08 804.738 1437.92 805.01 1438.71 804.881L1447.47 803.451C1449.25 803.161 1450.8 804.837 1450.23 806.435L1447.52 813.986C1447.31 814.58 1447.39 815.248 1447.74 815.815L1452.05 822.832C1453.08 824.505 1451.61 826.427 1449.64 825.992L1440.96 824.081C1440.11 823.894 1439.25 824.155 1438.72 824.761L1432.09 832.289C1431.01 833.52 1428.86 833.16 1428.13 831.626L1423.96 822.893C1423.77 822.482 1423.45 822.128 1423.05 821.878L1415.43 817.135C1413.83 816.133 1413.96 813.911 1415.67 813.269L1424.48 809.956C1425.38 809.62 1425.92 808.778 1425.84 807.851Z" fill="#2548A7"/>
</g>
<g style="mix-blend-mode:soft-light" filter="url(#filter4_f_2880_25496)">
<path d="M1730.99 615.887L1718.57 626.816C1717.04 628.156 1714.62 627.277 1714.63 625.386L1714.71 610.981C1714.71 610.541 1714.57 610.118 1714.3 609.768L1703.07 595.045C1701.94 593.559 1703.3 591.427 1705.3 591.54L1718.46 592.283C1719.01 592.314 1719.57 592.163 1720.03 591.858L1733.95 582.676C1735.48 581.672 1737.51 582.517 1737.61 584.193L1738.37 597.636C1738.4 598.136 1738.62 598.602 1738.98 598.955L1749.79 609.39C1751.1 610.654 1750.2 612.843 1748.26 613.107L1732.35 615.269C1731.85 615.337 1731.37 615.554 1730.99 615.887Z" fill="#F0F0F0"/>
</g>
<g style="mix-blend-mode:soft-light" filter="url(#filter5_f_2880_25496)">
<path d="M572.237 355.757L568.064 346.959C567.232 345.206 569.168 343.459 571.149 344.176L580.238 347.462C580.689 347.626 581.183 347.664 581.655 347.574L594.428 345.117C596.386 344.74 598.001 346.549 597.139 348.152L593.667 354.608C593.424 355.06 593.37 355.578 593.515 356.068L596.302 365.495C596.788 367.139 595.041 368.581 593.231 368.029L584.355 365.318C583.824 365.156 583.249 365.163 582.728 365.337L573.225 368.529C571.424 369.135 569.568 367.681 570.009 366.011L572.365 357.081C572.481 356.641 572.436 356.177 572.237 355.757Z" fill="#F0F0F0"/>
</g>
<g style="mix-blend-mode:soft-light" filter="url(#filter6_f_2880_25496)">
<path d="M1317.63 193.079L1317.38 189.149C1317.27 187.247 1319.57 186.236 1321.16 187.496L1324.08 189.825C1324.45 190.12 1324.9 190.307 1325.37 190.362L1331.08 191.027C1333.08 191.261 1334 193.617 1332.57 194.876L1330.71 196.513C1330.32 196.856 1330.08 197.325 1330.03 197.837L1329.59 202.294C1329.43 203.966 1327.41 204.743 1325.94 203.698L1322.75 201.435C1322.31 201.122 1321.78 200.955 1321.25 200.964L1317.12 201.029C1315.18 201.059 1313.92 198.966 1314.99 197.496L1317.24 194.402C1317.52 194.02 1317.66 193.556 1317.63 193.079Z" fill="#7CA7E8"/>
</g>
<g style="mix-blend-mode:soft-light" filter="url(#filter7_f_2880_25496)">
<path d="M270.256 191.192L267.672 188.221C266.422 186.783 267.637 184.577 269.659 184.613L273.4 184.68C273.873 184.689 274.344 184.563 274.751 184.321L279.679 181.379C281.416 180.342 283.576 181.655 283.208 183.523L282.729 185.953C282.629 186.462 282.723 186.981 282.995 187.418L285.359 191.221C286.246 192.648 285.114 194.496 283.312 194.561L279.41 194.702C278.869 194.722 278.345 194.914 277.926 195.246L274.689 197.811C273.171 199.013 270.898 198.118 270.853 196.301L270.758 192.474C270.746 192.002 270.57 191.552 270.256 191.192Z" fill="#7CA7E8"/>
</g>
<g filter="url(#filter8_f_2880_25496)">
<path d="M1245.57 226.924L1250.2 222.011C1251.37 220.774 1253.43 221.205 1253.99 222.806L1255.5 227.059C1255.76 227.798 1256.39 228.348 1257.15 228.517L1262.46 229.683C1264.49 230.13 1264.9 232.851 1263.08 233.879L1260.24 235.492C1259.54 235.893 1259.1 236.64 1259.09 237.452L1259.05 242.354C1259.03 243.928 1257.46 245.014 1255.99 244.472L1247.9 241.502C1247.55 241.374 1247.17 241.333 1246.81 241.383L1239.94 242.314C1238.27 242.54 1236.95 240.932 1237.49 239.334L1238.53 236.258C1238.81 235.456 1238.61 234.569 1238.03 233.958L1235.62 231.44C1234.23 229.99 1235.27 227.58 1237.28 227.594L1243.9 227.639C1244.53 227.643 1245.13 227.384 1245.57 226.924Z" fill="#F3EFBF" fill-opacity="0.3"/>
</g>
<g filter="url(#filter9_f_2880_25496)">
<path d="M287.275 264.119L288.664 250.515C288.836 248.822 290.734 247.911 292.159 248.836L300.749 254.414C301.405 254.84 302.236 254.898 302.945 254.566L314.761 249.035C316.647 248.152 318.625 250.063 317.812 251.983L314.066 260.833C313.75 261.582 313.855 262.442 314.344 263.091L320.725 271.563C321.672 272.819 321.088 274.637 319.586 275.106L304.202 279.905C303.848 280.015 303.527 280.211 303.266 280.473L293.641 290.168C292.453 291.365 290.423 290.895 289.881 289.297L287.229 281.478C286.957 280.676 286.262 280.092 285.425 279.963L275.871 278.49C273.886 278.184 273.247 275.638 274.85 274.426L286.383 265.705C286.888 265.323 287.211 264.749 287.275 264.119Z" fill="#F3EFBF" fill-opacity="0.3"/>
</g>
</g>
<defs>
<filter id="filter0_f_2880_25496" x="-20.9849" y="627.788" width="1962.58" height="341.212" filterUnits="userSpaceOnUse" color-interpolation-filters="sRGB">
<feFlood flood-opacity="0" result="BackgroundImageFix"/>
<feBlend mode="normal" in="SourceGraphic" in2="BackgroundImageFix" result="shape"/>
<feGaussianBlur stdDeviation="5" result="effect1_foregroundBlur_2880_25496"/>
</filter>
<filter id="filter1_f_2880_25496" x="1449.69" y="104.962" width="505.352" height="179.995" filterUnits="userSpaceOnUse" color-interpolation-filters="sRGB">
<feFlood flood-opacity="0" result="BackgroundImageFix"/>
<feBlend mode="normal" in="SourceGraphic" in2="BackgroundImageFix" result="shape"/>
<feGaussianBlur stdDeviation="6.07798" result="effect1_foregroundBlur_2880_25496"/>
</filter>
<filter id="filter2_f_2880_25496" x="-86.9011" y="329.191" width="546.807" height="183.821" filterUnits="userSpaceOnUse" color-interpolation-filters="sRGB">
<feFlood flood-opacity="0" result="BackgroundImageFix"/>
<feBlend mode="normal" in="SourceGraphic" in2="BackgroundImageFix" result="shape"/>
<feGaussianBlur stdDeviation="8.47375" result="effect1_foregroundBlur_2880_25496"/>
</filter>
<filter id="filter3_f_2880_25496" x="1409.76" y="791.255" width="47.181" height="46.321" filterUnits="userSpaceOnUse" color-interpolation-filters="sRGB">
<feFlood flood-opacity="0" result="BackgroundImageFix"/>
<feBlend mode="normal" in="SourceGraphic" in2="BackgroundImageFix" result="shape"/>
<feGaussianBlur stdDeviation="2.27303" result="effect1_foregroundBlur_2880_25496"/>
</filter>
<filter id="filter4_f_2880_25496" x="1698.12" y="577.698" width="56.8387" height="54.3088" filterUnits="userSpaceOnUse" color-interpolation-filters="sRGB">
<feFlood flood-opacity="0" result="BackgroundImageFix"/>
<feBlend mode="normal" in="SourceGraphic" in2="BackgroundImageFix" result="shape"/>
<feGaussianBlur stdDeviation="2.27303" result="effect1_foregroundBlur_2880_25496"/>
</filter>
<filter id="filter5_f_2880_25496" x="563.32" y="339.465" width="38.6034" height="33.7507" filterUnits="userSpaceOnUse" color-interpolation-filters="sRGB">
<feFlood flood-opacity="0" result="BackgroundImageFix"/>
<feBlend mode="normal" in="SourceGraphic" in2="BackgroundImageFix" result="shape"/>
<feGaussianBlur stdDeviation="2.27303" result="effect1_foregroundBlur_2880_25496"/>
</filter>
<filter id="filter6_f_2880_25496" x="1310.05" y="182.392" width="27.7577" height="26.326" filterUnits="userSpaceOnUse" color-interpolation-filters="sRGB">
<feFlood flood-opacity="0" result="BackgroundImageFix"/>
<feBlend mode="normal" in="SourceGraphic" in2="BackgroundImageFix" result="shape"/>
<feGaussianBlur stdDeviation="2.27303" result="effect1_foregroundBlur_2880_25496"/>
</filter>
<filter id="filter7_f_2880_25496" x="262.619" y="176.468" width="27.5941" height="26.4379" filterUnits="userSpaceOnUse" color-interpolation-filters="sRGB">
<feFlood flood-opacity="0" result="BackgroundImageFix"/>
<feBlend mode="normal" in="SourceGraphic" in2="BackgroundImageFix" result="shape"/>
<feGaussianBlur stdDeviation="2.27303" result="effect1_foregroundBlur_2880_25496"/>
</filter>
<filter id="filter8_f_2880_25496" x="1230.44" y="216.749" width="38.3495" height="32.4104" filterUnits="userSpaceOnUse" color-interpolation-filters="sRGB">
<feFlood flood-opacity="0" result="BackgroundImageFix"/>
<feBlend mode="normal" in="SourceGraphic" in2="BackgroundImageFix" result="shape"/>
<feGaussianBlur stdDeviation="2.27303" result="effect1_foregroundBlur_2880_25496"/>
</filter>
<filter id="filter9_f_2880_25496" x="269.398" y="243.921" width="56.3324" height="51.4649" filterUnits="userSpaceOnUse" color-interpolation-filters="sRGB">
<feFlood flood-opacity="0" result="BackgroundImageFix"/>
<feBlend mode="normal" in="SourceGraphic" in2="BackgroundImageFix" result="shape"/>
<feGaussianBlur stdDeviation="2.27303" result="effect1_foregroundBlur_2880_25496"/>
</filter>
<linearGradient id="paint0_linear_2880_25496" x1="930.05" y1="589.505" x2="930.05" y2="940.406" gradientUnits="userSpaceOnUse">
<stop stop-color="#172E51"/>
<stop offset="1" stop-color="#103163"/>
</linearGradient>
<clipPath id="clip0_2880_25496">
<rect width="1920" height="959" fill="white" transform="translate(0.304199)"/>
</clipPath>
</defs>
</svg>
