<svg width="2001" height="1446" viewBox="0 0 2001 1446" fill="none" xmlns="http://www.w3.org/2000/svg">
<rect x="0.304199" y="0.602539" width="2000" height="1445" fill="url(#paint0_linear_2880_25673)"/>
<g style="mix-blend-mode:soft-light" filter="url(#filter0_f_2880_25673)">
<path d="M44.249 598.562L37.2565 574.656C36.6478 572.575 38.5102 570.557 40.1601 571.51L57.6511 581.616C58.0169 581.827 58.4323 581.898 58.8431 581.82L82.7613 577.255C84.4252 576.938 85.6065 578.999 84.7916 580.798L76.8123 598.411C76.5751 598.934 76.4968 599.534 76.5914 600.102L80.632 624.384C80.9577 626.342 79.28 628.019 77.7546 627.261L61.1652 619.013C60.7264 618.795 60.2306 618.773 59.7647 618.95L41.1835 626.034C39.6286 626.627 38.212 624.967 38.6695 623.089L44.2771 600.066C44.3988 599.566 44.389 599.04 44.249 598.562Z" fill="#F0F0F0" fill-opacity="0.5"/>
</g>
<g style="mix-blend-mode:soft-light" filter="url(#filter1_f_2880_25673)">
<path d="M358.723 990.132L363.454 978.337C364.261 976.326 366.906 975.764 367.633 977.449L371.535 986.484C371.699 986.864 371.987 987.156 372.362 987.322L384.097 992.528C385.638 993.211 385.297 995.622 383.519 996.61L374.942 1001.38C374.434 1001.66 374.001 1002.1 373.721 1002.61L367.458 1014.08C366.508 1015.82 364.219 1016.21 363.474 1014.76L359.251 1006.53C359.034 1006.11 358.656 1005.81 358.181 1005.7L348.156 1003.23C346.537 1002.83 346.446 1000.61 347.999 999.35L357.798 991.376C358.209 991.042 358.532 990.606 358.723 990.132Z" fill="#F0F0F0" fill-opacity="0.5"/>
</g>
<g filter="url(#filter2_f_2880_25673)">
<path d="M455.477 802.637L471.9 778.819C473.004 777.217 475.483 777.662 475.972 779.549L482.43 804.464C482.63 805.235 483.219 805.847 483.982 806.077L509.724 813.817C511.496 814.35 511.931 816.66 510.473 817.791L491.675 832.378C491.126 832.804 490.803 833.458 490.799 834.154L490.621 862.126C490.61 863.809 488.839 864.892 487.333 864.136L461.759 851.298C461.315 851.075 460.811 851.003 460.324 851.094L436.55 855.501C434.923 855.803 433.525 854.318 433.923 852.712L439.576 829.944C439.734 829.306 439.608 828.629 439.23 828.09L424.419 806.933C423.358 805.418 424.447 803.343 426.294 803.36L453.59 803.616C454.343 803.623 455.05 803.256 455.477 802.637Z" fill="#F3EFBF" fill-opacity="0.3"/>
</g>
<g opacity="0.6" filter="url(#filter3_f_2880_25673)">
<path d="M1558.95 1092.75L1579.39 1083.58C1581.32 1082.71 1582.89 1085.3 1581.64 1087.29L1568.2 1108.68C1567.76 1109.4 1567.64 1110.32 1567.91 1111.11L1573.66 1128.3C1574.21 1129.94 1573.12 1131.79 1571.62 1131.78L1554.58 1131.68C1554.05 1131.68 1553.53 1131.92 1553.13 1132.36L1539.34 1147.14C1537.95 1148.64 1535.82 1147.48 1535.96 1145.29L1537.15 1126.01C1537.21 1124.97 1536.72 1124.03 1535.93 1123.66L1519.65 1116.06C1518.19 1115.38 1518 1113 1519.31 1111.82L1535.27 1097.48C1535.57 1097.22 1535.81 1096.87 1535.96 1096.47L1543.5 1076.82C1544.17 1075.06 1546.15 1074.73 1547.06 1076.23L1556.62 1091.97C1557.14 1092.82 1558.08 1093.14 1558.95 1092.75Z" fill="#2548A7"/>
</g>
<g style="mix-blend-mode:soft-light" filter="url(#filter4_f_2880_25673)">
<path d="M1763.89 643.922L1751.11 659.285C1749.82 660.838 1747.37 659.544 1747.38 657.315L1747.46 637.202C1747.46 636.723 1747.34 636.241 1747.1 635.818L1735.08 614.269C1734.15 612.598 1735.12 610.581 1736.79 610.711L1751.28 611.829C1751.78 611.868 1752.27 611.703 1752.64 611.364L1766.81 598.587C1768.15 597.384 1770.26 598.609 1770.35 600.635L1771.13 619.319C1771.15 619.888 1771.35 620.448 1771.7 620.899L1783.29 636.209C1784.39 637.657 1783.83 639.774 1782.27 640.064L1764.97 643.279C1764.55 643.357 1764.17 643.581 1763.89 643.922Z" fill="#F0F0F0"/>
</g>
<g filter="url(#filter5_f_2880_25673)">
<path d="M1839.68 529.713L1844.04 523.389C1845.15 521.787 1847.63 522.232 1848.12 524.119L1849.71 530.281C1849.91 531.053 1850.5 531.664 1851.27 531.894L1858.12 533.955C1859.89 534.488 1860.33 536.798 1858.87 537.929L1854.08 541.643C1853.54 542.069 1853.21 542.724 1853.21 543.42L1853.16 551.585C1853.15 553.268 1851.37 554.351 1849.87 553.595L1842.16 549.727C1841.72 549.505 1841.22 549.433 1840.73 549.523L1833.91 550.788C1832.28 551.09 1830.88 549.605 1831.28 547.999L1832.84 541.699C1833 541.061 1832.88 540.384 1832.5 539.845L1828.54 534.196C1827.48 532.681 1828.57 530.606 1830.42 530.623L1837.8 530.692C1838.55 530.699 1839.26 530.332 1839.68 529.713Z" fill="#F3EFBF" fill-opacity="0.3"/>
</g>
<g filter="url(#filter6_f_2880_25673)">
<path d="M1253.83 243.693L1279.15 224.761C1280.74 223.573 1282.98 224.861 1282.77 226.838L1279.69 255.322C1279.61 256.113 1279.94 256.892 1280.57 257.377L1303.38 274.914C1304.81 276.017 1304.46 278.273 1302.75 278.867L1278.18 287.447C1277.54 287.67 1277.04 288.165 1276.8 288.799L1265.94 318.111C1265.35 319.707 1263.28 320.104 1262.13 318.839L1241.72 296.291C1241.37 295.905 1240.9 295.65 1240.39 295.57L1215.16 291.596C1213.53 291.339 1212.7 289.475 1213.61 288.093L1228.03 266.113C1228.37 265.587 1228.49 264.94 1228.34 264.327L1221.59 236.5C1221.16 234.727 1222.88 233.198 1224.58 233.838L1251.68 243.999C1252.4 244.27 1253.21 244.155 1253.83 243.693Z" fill="#F3EFBF" fill-opacity="0.1"/>
</g>
<defs>
<filter id="filter0_f_2880_25673" x="32.5926" y="566.721" width="57.0091" height="65.2722" filterUnits="userSpaceOnUse" color-interpolation-filters="sRGB">
<feFlood flood-opacity="0" result="BackgroundImageFix"/>
<feBlend mode="normal" in="SourceGraphic" in2="BackgroundImageFix" result="shape"/>
<feGaussianBlur stdDeviation="2.27303" result="effect1_foregroundBlur_2880_25673"/>
</filter>
<filter id="filter1_f_2880_25673" x="342.34" y="971.908" width="47.2826" height="48.2915" filterUnits="userSpaceOnUse" color-interpolation-filters="sRGB">
<feFlood flood-opacity="0" result="BackgroundImageFix"/>
<feBlend mode="normal" in="SourceGraphic" in2="BackgroundImageFix" result="shape"/>
<feGaussianBlur stdDeviation="2.27303" result="effect1_foregroundBlur_2880_25673"/>
</filter>
<filter id="filter2_f_2880_25673" x="419.456" y="773.293" width="96.4398" height="95.6341" filterUnits="userSpaceOnUse" color-interpolation-filters="sRGB">
<feFlood flood-opacity="0" result="BackgroundImageFix"/>
<feBlend mode="normal" in="SourceGraphic" in2="BackgroundImageFix" result="shape"/>
<feGaussianBlur stdDeviation="2.27303" result="effect1_foregroundBlur_2880_25673"/>
</filter>
<filter id="filter3_f_2880_25673" x="1513.88" y="1070.74" width="72.7523" height="81.6246" filterUnits="userSpaceOnUse" color-interpolation-filters="sRGB">
<feFlood flood-opacity="0" result="BackgroundImageFix"/>
<feBlend mode="normal" in="SourceGraphic" in2="BackgroundImageFix" result="shape"/>
<feGaussianBlur stdDeviation="2.27303" result="effect1_foregroundBlur_2880_25673"/>
</filter>
<filter id="filter4_f_2880_25673" x="1730.17" y="593.565" width="58.2386" height="70.9465" filterUnits="userSpaceOnUse" color-interpolation-filters="sRGB">
<feFlood flood-opacity="0" result="BackgroundImageFix"/>
<feBlend mode="normal" in="SourceGraphic" in2="BackgroundImageFix" result="shape"/>
<feGaussianBlur stdDeviation="2.27303" result="effect1_foregroundBlur_2880_25673"/>
</filter>
<filter id="filter5_f_2880_25673" x="1823.58" y="517.863" width="40.7132" height="40.5235" filterUnits="userSpaceOnUse" color-interpolation-filters="sRGB">
<feFlood flood-opacity="0" result="BackgroundImageFix"/>
<feBlend mode="normal" in="SourceGraphic" in2="BackgroundImageFix" result="shape"/>
<feGaussianBlur stdDeviation="2.27303" result="effect1_foregroundBlur_2880_25673"/>
</filter>
<filter id="filter6_f_2880_25673" x="1208.69" y="219.759" width="100.128" height="104.376" filterUnits="userSpaceOnUse" color-interpolation-filters="sRGB">
<feFlood flood-opacity="0" result="BackgroundImageFix"/>
<feBlend mode="normal" in="SourceGraphic" in2="BackgroundImageFix" result="shape"/>
<feGaussianBlur stdDeviation="2.27303" result="effect1_foregroundBlur_2880_25673"/>
</filter>
<linearGradient id="paint0_linear_2880_25673" x1="1000.3" y1="0.602539" x2="1000.3" y2="1445.6" gradientUnits="userSpaceOnUse">
<stop stop-color="#1F3D69"/>
<stop offset="1" stop-color="#3E5D8A"/>
</linearGradient>
</defs>
</svg>
