<svg width="301" height="88" viewBox="0 0 301 88" fill="none" xmlns="http://www.w3.org/2000/svg">
<path d="M212.665 54.5034C213.874 51.4118 215.473 48.7496 218.102 46.8842C220.731 45.0187 223.644 43.9549 227.481 43.9549C231.318 43.9549 233.797 44.4247 236.71 46.3951C239.339 48.2605 240.637 49.608 242.298 53.492C243.958 57.3759 243.781 60.1286 243.931 65.3066C243.931 70.5581 243.11 75.4381 241.906 78.5297C240.697 81.6254 238.344 84.1273 235.927 85.4381C233.509 86.749 231.617 87.4716 227.308 87.2683C220.942 87.2683 215.104 83.2976 212.799 77.3629C212.767 77.2798 212.735 77.1961 212.701 77.1116C211.493 74.02 211.16 71.4499 210.854 66.0108C210.854 60.7593 211.456 57.5991 212.665 54.5034Z" fill="white"/>
<path d="M223.66 6.04856C225.547 3.2738 229.637 3.27381 231.524 6.04857L234.669 10.6723C235.327 11.6405 236.32 12.3317 237.456 12.6136L242.287 13.8114C245.819 14.6873 247.099 19.0441 244.601 21.6909L242.725 23.6785C241.484 24.9947 241.096 26.9017 241.726 28.598L243.047 32.1534C244.396 35.787 241.065 39.4222 237.328 38.3945L228.853 36.064C228.027 35.8371 227.156 35.8371 226.331 36.064L217.856 38.3945C214.118 39.4222 210.787 35.787 212.137 32.1534L213.457 28.598C214.087 26.9017 213.7 24.9947 212.458 23.6785L210.583 21.6909C208.085 19.0441 209.365 14.6873 212.897 13.8114L217.727 12.6136C218.864 12.3317 219.856 11.6405 220.515 10.6723L223.66 6.04856Z" fill="#FDFE96"/>
<path d="M56.6125 30.8361C54.4543 25.3311 51.1545 20.938 46.717 17.6485C42.2755 14.3631 36.7433 12.7162 30.1124 12.7162C23.4815 12.7162 17.5739 14.3631 13.1324 17.6485C8.69098 20.938 5.45764 25.3142 3.42458 30.7772C1.39152 36.2443 0.378906 42.3011 0.378906 48.956C0.378906 55.6109 1.52055 61.5666 3.79992 67.0717C6.08319 72.5767 9.47292 76.974 13.9769 80.2593C18.4809 83.5447 23.8568 85.1915 30.1124 85.1915C36.6807 85.1915 42.1817 83.5657 46.6231 80.3183C51.0607 77.0667 54.3761 72.7115 56.5656 67.2444C58.755 61.7814 59.8458 55.6825 59.8458 48.956C59.8458 42.2295 58.7667 36.3412 56.6125 30.8361ZM33.3848 50.4428C33.3574 54.8401 33.1893 59.2248 32.7162 63.5968C32.6459 64.2117 32.5559 64.9278 32.3605 65.5848C32.3487 65.6228 32.3409 65.6565 32.3292 65.6901C32.2158 66.3851 31.8014 66.9748 31.2305 67.3117C30.9921 67.4592 30.7223 67.5603 30.4017 67.5982C30.3039 67.6108 30.214 67.6192 30.1124 67.6192C30.0107 67.6192 29.9208 67.6108 29.823 67.5982C29.5024 67.5603 29.2288 67.4592 28.9942 67.3117C28.4234 66.9748 28.0089 66.3851 27.8955 65.6901C27.8838 65.6565 27.876 65.6228 27.8643 65.5848C27.6688 64.9278 27.5789 64.2117 27.5085 63.5968C27.0354 59.2248 26.8673 54.8401 26.8399 50.4428C26.8399 49.9458 26.8399 49.4488 26.8399 48.956C26.8399 48.4632 26.8399 47.962 26.8399 47.465C26.8673 43.0677 27.0354 38.683 27.5085 34.311C27.5789 33.696 27.6688 32.98 27.8643 32.323C27.876 32.285 27.8838 32.2513 27.8955 32.2177C28.0089 31.5227 28.4234 30.933 28.9942 30.596C29.2327 30.4486 29.5024 30.3475 29.823 30.3096C29.9208 30.297 30.0146 30.2886 30.1124 30.2886C30.2101 30.2886 30.3039 30.297 30.4017 30.3096C30.7223 30.3475 30.996 30.4486 31.2305 30.596C31.8014 30.933 32.2158 31.5227 32.3292 32.2177C32.3409 32.2513 32.3487 32.285 32.3605 32.323C32.5559 32.98 32.6459 33.696 32.7162 34.311C33.1893 38.683 33.3574 43.0677 33.3848 47.465C33.3848 47.962 33.3848 48.459 33.3848 48.956C33.3848 49.453 33.3848 49.9458 33.3848 50.4428Z" fill="white"/>
<path d="M196.738 40.4815C194.809 36.1881 192.235 32.9898 189.009 30.8909C185.787 28.792 182.151 27.7404 178.105 27.7404C174.059 27.7404 171.025 28.6877 168.431 30.5737C168.431 25.4025 168.15 21.3481 167.58 18.4279C167.014 15.5077 165.779 13.2394 163.885 11.6272C161.987 10.015 159.078 9.20674 155.16 9.20674C151.243 9.20674 147.955 10.2584 145.486 12.3616C143.022 14.4605 141.14 18.2672 139.843 23.7773C138.546 29.2874 137.898 37.0963 137.898 47.1996C137.898 57.303 138.433 65.2857 139.511 70.761C140.585 76.2408 142.26 80.017 144.537 82.0855C146.81 84.1539 149.907 85.1925 153.829 85.1925C156.734 85.1925 159.124 84.6276 160.987 83.5021C162.85 82.3766 164.385 80.4125 165.588 77.6096C166.662 80.1648 168.213 82.0724 170.236 83.3196C172.255 84.5624 174.883 85.1925 178.105 85.1925C182.089 85.1925 185.709 84.1279 188.967 81.9942C192.22 79.8649 194.813 76.6362 196.742 72.3124C198.672 67.9886 199.636 62.661 199.636 56.3296C199.636 49.9981 198.672 44.7748 196.742 40.4815H196.738ZM172.075 56.7554C172.048 60.2579 171.876 63.7474 171.399 67.2325C171.337 67.6801 171.255 68.1885 171.091 68.6709C171.068 68.7491 171.04 68.8273 171.009 68.9012C170.896 69.453 170.478 69.9224 169.9 70.1918C169.658 70.3091 169.384 70.3917 169.06 70.4221C168.962 70.4308 168.865 70.4395 168.767 70.4395C168.67 70.4395 168.568 70.4308 168.474 70.4221C168.15 70.3917 167.873 70.3135 167.635 70.1918C167.072 69.9311 166.662 69.4791 166.537 68.949C166.529 68.9359 166.525 68.9185 166.522 68.9012C166.303 68.3536 166.201 67.7496 166.131 67.2325C165.654 63.7517 165.483 60.2579 165.455 56.7554C165.455 56.36 165.447 55.9689 165.447 55.5735C165.447 55.178 165.447 54.7826 165.455 54.3871C165.483 50.8846 165.654 47.3952 166.131 43.9101C166.201 43.393 166.303 42.7889 166.522 42.2414C166.522 42.224 166.529 42.2066 166.537 42.1936C166.662 41.6591 167.072 41.2115 167.635 40.9508C167.873 40.8334 168.15 40.7509 168.474 40.7248C168.568 40.7161 168.666 40.7074 168.767 40.7074C168.869 40.7074 168.962 40.7161 169.06 40.7248C169.384 40.7552 169.658 40.8334 169.9 40.9508C170.478 41.2245 170.896 41.6895 171.009 42.2414C171.04 42.3153 171.068 42.3935 171.091 42.4717C171.259 42.9541 171.337 43.4625 171.399 43.9101C171.876 47.3908 172.048 50.8846 172.075 54.3871C172.075 54.7826 172.075 55.178 172.075 55.5735C172.075 55.9689 172.075 56.36 172.075 56.7554Z" fill="white"/>
<path d="M289.57 43.6749C289.57 35.125 289.082 28.3306 288.105 23.2918C287.129 18.2569 285.665 14.6673 283.712 12.5308C281.759 10.3943 279.23 9.32216 276.129 9.32216C273.027 9.32216 270.498 10.3943 268.546 12.5308C266.593 14.6673 265.129 18.2569 264.152 23.2918C263.176 28.3306 262.688 35.125 262.688 43.6749C262.688 52.2247 262.17 62.703 263.15 67.7379C263.66 70.3613 264.582 72.7138 266.67 74.65C269.188 76.9868 272.602 78.0236 276.132 78.0236C279.663 78.0236 283.077 76.9868 285.595 74.65C287.683 72.7138 288.605 70.3613 289.115 67.7379C290.091 62.703 289.577 52.2247 289.577 43.6749H289.57Z" fill="white"/>
<path d="M264.103 43.5728C265.14 39.7424 266.692 37.0167 268.76 35.3913C270.829 33.7659 273.509 32.9509 276.799 32.9509C280.088 32.9509 282.765 33.7659 284.837 35.3913C286.905 37.0167 288.458 39.7469 289.494 43.5728C290.53 47.4032 291.046 52.5693 291.046 59.071C291.046 65.5727 290.526 70.7388 289.494 74.5692C288.458 78.3996 286.905 81.1298 284.837 82.7507C282.765 84.3761 280.088 85.1911 276.799 85.1911C273.509 85.1911 270.832 84.3761 268.76 82.7507C266.688 81.1253 265.136 78.3996 264.103 74.5692C263.067 70.7388 262.551 65.5727 262.551 59.071C262.551 52.5693 263.067 47.4032 264.103 43.5728Z" fill="white"/>
<path d="M262.843 45.523C259.39 44.592 256.928 43.1954 255.462 41.3376C253.996 39.4798 253.263 37.0676 253.263 34.1136C253.263 31.1597 253.996 28.7517 255.462 26.8897C256.928 25.0318 259.39 23.6353 262.843 22.7042C266.3 21.7732 270.957 21.3077 276.821 21.3077C282.685 21.3077 287.346 21.7732 290.799 22.7042C294.256 23.6353 296.714 25.0318 298.18 26.8897C299.646 28.7517 300.379 31.1597 300.379 34.1136C300.379 37.0676 299.646 39.4798 298.18 41.3376C296.714 43.1997 294.252 44.5962 290.799 45.523C287.346 46.4541 282.685 46.9196 276.821 46.9196C270.957 46.9196 266.296 46.4541 262.843 45.523Z" fill="white"/>
<path d="M123.986 23.7962C123.638 22.906 123.236 22.0325 122.771 21.201C121.501 18.9292 119.793 16.9514 117.66 15.6496C112.279 12.3658 104.316 14.7426 102.675 21.5664C102.189 23.5894 100.412 23.7308 99.5032 22.2261C98.9498 21.3094 98.7091 20.761 98.3887 20.1143C98.037 19.3962 97.6111 18.7201 97.1344 18.086C95.9466 16.4987 94.4071 15.1759 92.684 14.3193C90.7537 13.3618 88.632 12.8915 86.5103 12.8957C85.2092 12.8957 83.8807 13.0511 82.6303 13.4458C82.5405 13.4752 82.4819 13.492 82.4662 13.4962C81.4894 13.786 80.5516 14.2101 79.6959 14.7602C77.1444 16.3895 75.4057 19.1064 74.2295 21.9746C71.807 27.8829 70.5957 36.9702 70.5957 49.2446C70.5957 61.5191 72.0102 70.22 74.8352 76.2796C77.6602 82.3391 81.6183 85.371 86.7135 85.371C91.3086 85.371 94.5048 83.6745 96.31 80.2815C98.967 75.2885 98.9279 69.6489 98.9279 64.0933C98.9279 59.0163 98.9279 53.9436 98.9318 48.8667C98.9318 46.8007 98.8576 44.7724 98.7716 42.7316C98.7052 41.1232 98.6075 38.9984 99.7875 37.7848C100.753 36.7896 102.284 36.945 103.05 38.1208C103.761 39.2084 103.664 40.8965 103.836 42.1563C104.047 43.6974 104.258 45.1126 104.863 46.5277C104.992 46.8217 105.129 47.1114 105.277 47.3928C105.422 47.6699 105.578 47.9387 105.742 48.199C105.906 48.4594 106.078 48.7071 106.262 48.9507C106.446 49.19 106.633 49.4168 106.832 49.6394C109.067 52.1169 111.861 53.3557 115.218 53.3557C118.941 53.3557 121.923 51.6592 124.158 48.2662C125.971 45.5157 126.053 42.1101 126.248 38.8724C126.596 33.1446 126.057 29.1251 123.982 23.792L123.986 23.7962Z" fill="white"/>
</svg>
