<svg width="376" height="786" viewBox="0 0 376 786" fill="none" xmlns="http://www.w3.org/2000/svg">
<g clip-path="url(#clip0_2880_26526)">
<rect width="375" height="786" transform="translate(0.304688)" fill="#1F3B64"/>
<g filter="url(#filter0_f_2880_26526)">
<path d="M22.0932 246.69L11.3142 243.4L2.21939 250.878L1.37728 261.047L-14.286 270.469L-30.2861 280.339L-29.6124 291.705L7.44049 289.313L20.5774 292.603L32.7039 284.527L45.8408 288.116L58.6409 286.172L70.2621 284.228L82.0516 282.732L93.6728 284.377L105.462 284.676L117.083 282.732L128.873 286.022L140.663 289.014L152.284 285.873L164.073 289.612L175.695 284.826L187.484 286.322L199.274 288.864L210.895 285.574L213.253 276.75L202.811 271.067L197.758 262.842L185.631 260.598L172.494 259.552L160.873 253.569L151.779 247.139L140.663 248.186L129.378 248.634L126.178 238.016L112.536 234.726L101.42 230.389L90.978 224.257L78.0095 224.108L63.6936 221.416L53.083 230.09L48.704 244.596L32.5354 236.969L22.0932 246.69Z" fill="white" fill-opacity="0.05"/>
</g>
<g filter="url(#filter1_f_2880_26526)">
<path d="M383.72 85.5402L394.834 82.1479L404.211 89.8576L405.079 100.343L410.809 110.057L413.414 120.234L412.719 131.953L398.827 129.486L385.283 132.878L372.78 124.551L359.235 128.252L346.038 126.248L334.056 124.243L321.9 122.701L309.919 124.397L297.763 124.706L285.781 122.701L273.626 126.093L261.47 129.177L249.488 125.939L237.333 129.794L225.351 124.86L213.196 126.402L201.04 129.023L189.058 125.631L186.627 116.533L197.393 110.674L202.603 102.193L215.106 99.8803L228.65 98.8009L240.632 92.6332L250.009 86.0028L261.47 87.0821L273.105 87.5447L276.404 76.5969L290.47 73.2046L301.931 68.7329L312.697 62.411L326.068 62.2568L340.828 59.4813L351.768 68.4246L356.283 83.3815L372.954 75.5175L383.72 85.5402Z" fill="white" fill-opacity="0.05"/>
</g>
<g filter="url(#filter2_f_2880_26526)">
<path fill-rule="evenodd" clip-rule="evenodd" d="M470.487 645.652V807.771C470.487 811.616 467.37 814.733 463.526 814.733H-87.9173C-91.7621 814.733 -94.8789 811.616 -94.8789 807.771V645.652V636.79C-94.8789 632.945 -91.7621 629.829 -87.9173 629.829H-79.2672C-78.2897 629.829 -77.3591 629.635 -76.4605 629.25C-35.9167 611.89 67.1105 599.556 187.804 599.556C308.498 599.556 411.525 611.89 452.069 629.25C452.967 629.635 453.898 629.829 454.876 629.829H463.526C467.37 629.829 470.487 632.945 470.487 636.79V645.652Z" fill="url(#paint0_linear_2880_26526)"/>
</g>
<g style="mix-blend-mode:soft-light" filter="url(#filter3_f_2880_26526)">
<path d="M48.4841 143.21L47.5471 141.234C46.7156 139.481 48.6518 137.735 50.6327 138.451L52.4416 139.105C52.8926 139.268 53.3863 139.307 53.8581 139.216L57.7882 138.461C59.7458 138.084 61.361 139.892 60.4989 141.495L59.9113 142.588C59.6678 143.041 59.6137 143.558 59.7587 144.048L60.5498 146.724C61.036 148.368 59.2885 149.811 57.4792 149.258L55.3034 148.594C54.7723 148.431 54.1971 148.438 53.6768 148.613L51.1969 149.446C49.3953 150.051 47.5396 148.598 47.9804 146.927L48.6121 144.533C48.7282 144.093 48.6834 143.63 48.4841 143.21Z" fill="#F0F0F0"/>
</g>
<g opacity="0.6" filter="url(#filter4_f_2880_26526)">
<path d="M283.613 410.452L283.144 405.16C283.064 404.255 284.228 403.817 284.904 404.499L288.957 408.585C289.209 408.839 289.575 408.959 289.925 408.902L294.577 408.143C295.36 408.015 296.041 408.752 295.789 409.455L294.352 413.463C294.258 413.724 294.292 414.018 294.446 414.268L296.769 418.043C297.222 418.779 296.576 419.624 295.707 419.433L291.037 418.404C290.663 418.322 290.284 418.437 290.049 418.704L286.577 422.649C286.101 423.19 285.153 423.032 284.832 422.357L282.658 417.796C282.572 417.615 282.431 417.46 282.255 417.35L278.227 414.84C277.519 414.399 277.578 413.422 278.329 413.139L283.017 411.378C283.411 411.23 283.649 410.859 283.613 410.452Z" fill="#2548A7"/>
</g>
<g filter="url(#filter5_f_2880_26526)">
<path d="M147.945 115.179L150.011 112.988C150.524 112.443 151.431 112.633 151.68 113.338L152.355 115.241C152.47 115.566 152.744 115.808 153.081 115.882L155.459 116.405C156.353 116.602 156.532 117.798 155.735 118.251L154.452 118.979C154.141 119.155 153.948 119.484 153.945 119.841L153.926 122.032C153.92 122.724 153.229 123.202 152.579 122.964L148.978 121.641C148.825 121.585 148.66 121.567 148.499 121.589L145.44 122.004C144.705 122.104 144.122 121.396 144.361 120.693L144.83 119.312C144.95 118.959 144.863 118.569 144.606 118.3L143.52 117.166C142.909 116.527 143.368 115.467 144.252 115.473L147.209 115.494C147.487 115.496 147.754 115.382 147.945 115.179Z" fill="#F3EFBF" fill-opacity="0.3"/>
</g>
</g>
<defs>
<filter id="filter0_f_2880_26526" x="-47.2336" y="204.468" width="277.434" height="105.082" filterUnits="userSpaceOnUse" color-interpolation-filters="sRGB">
<feFlood flood-opacity="0" result="BackgroundImageFix"/>
<feBlend mode="normal" in="SourceGraphic" in2="BackgroundImageFix" result="shape"/>
<feGaussianBlur stdDeviation="8.47375" result="effect1_foregroundBlur_2880_26526"/>
</filter>
<filter id="filter1_f_2880_26526" x="174.471" y="47.3253" width="251.099" height="97.7087" filterUnits="userSpaceOnUse" color-interpolation-filters="sRGB">
<feFlood flood-opacity="0" result="BackgroundImageFix"/>
<feBlend mode="normal" in="SourceGraphic" in2="BackgroundImageFix" result="shape"/>
<feGaussianBlur stdDeviation="6.07798" result="effect1_foregroundBlur_2880_26526"/>
</filter>
<filter id="filter2_f_2880_26526" x="-104.879" y="589.556" width="585.366" height="235.177" filterUnits="userSpaceOnUse" color-interpolation-filters="sRGB">
<feFlood flood-opacity="0" result="BackgroundImageFix"/>
<feBlend mode="normal" in="SourceGraphic" in2="BackgroundImageFix" result="shape"/>
<feGaussianBlur stdDeviation="5" result="effect1_foregroundBlur_2880_26526"/>
</filter>
<filter id="filter3_f_2880_26526" x="42.8035" y="133.74" width="22.4788" height="20.3916" filterUnits="userSpaceOnUse" color-interpolation-filters="sRGB">
<feFlood flood-opacity="0" result="BackgroundImageFix"/>
<feBlend mode="normal" in="SourceGraphic" in2="BackgroundImageFix" result="shape"/>
<feGaussianBlur stdDeviation="2.27303" result="effect1_foregroundBlur_2880_26526"/>
</filter>
<filter id="filter4_f_2880_26526" x="273.183" y="399.62" width="28.2806" height="27.9007" filterUnits="userSpaceOnUse" color-interpolation-filters="sRGB">
<feFlood flood-opacity="0" result="BackgroundImageFix"/>
<feBlend mode="normal" in="SourceGraphic" in2="BackgroundImageFix" result="shape"/>
<feGaussianBlur stdDeviation="2.27303" result="effect1_foregroundBlur_2880_26526"/>
</filter>
<filter id="filter5_f_2880_26526" x="141.241" y="110.673" width="17.002" height="14.3528" filterUnits="userSpaceOnUse" color-interpolation-filters="sRGB">
<feFlood flood-opacity="0" result="BackgroundImageFix"/>
<feBlend mode="normal" in="SourceGraphic" in2="BackgroundImageFix" result="shape"/>
<feGaussianBlur stdDeviation="1" result="effect1_foregroundBlur_2880_26526"/>
</filter>
<linearGradient id="paint0_linear_2880_26526" x1="178.999" y1="579.778" x2="178.999" y2="723.517" gradientUnits="userSpaceOnUse">
<stop stop-color="#172E51"/>
<stop offset="1" stop-color="#184385"/>
</linearGradient>
<clipPath id="clip0_2880_26526">
<rect width="375" height="786" fill="white" transform="translate(0.304688)"/>
</clipPath>
</defs>
</svg>
